<svg id="Layer_1" data-name="Layer 1" xmlns="http://www.w3.org/2000/svg" viewBox="0 0 1920 496.77"><path id="Path_11" data-name="Path 11" d="M0,873.32l155.61-79L1493.23,928.23,1920,778.72V1079H0Z" transform="translate(0 -582.23)"/><path id="work-on-computer-employee-software-engineer-programmer-svgrepo-com" d="M307.84,586.47a22.6,22.6,0,1,1-25.19,19.68h0a22.57,22.57,0,0,1,25.14-19.68ZM414.63,701.34,397.2,630.79h-.1l19-44.31-9.95-4.24-37.65,87.56,9.95,4.24L390.08,647l11.6,45.85-25.11-3.08-.84,6.85L350,693.41l0-.3c.81-6.65-3.34-13-10-13.82l-41.29-5.07s-7.67-33.58-11-41c-2.62-5.76-7.27-9.76-13.92-10.58-10.22-1.25-19,6.23-26.06,17.76-11.71,19.11-18.74,43.54-19.28,66.75,0,9.46,1.27,17.58,6.18,22.72l-18.36-2.26,8.87-72.25-15.58-1.92L190.47,809.63l15.58,1.91,8.4-68.38,74,9.09-16.61,50a14.43,14.43,0,0,0,27.34,9.27,1.09,1.09,0,0,0,0-.17L313.33,769l7.45,31.24a14.52,14.52,0,0,0,12.26,11,14.19,14.19,0,0,0,5.07-.29,14.44,14.44,0,0,0,10.69-17.32l-16.24-68a14.5,14.5,0,0,0-12.25-11L282,709.94l1.11-9,125.06,15.36L393.64,834.58l15.58,1.91L425.65,702.7Z" transform="translate(0 -582.23)"/><g id="programmer-svgrepo-com"><g id="Group_5" data-name="Group 5"><g id="Group_4" data-name="Group 4"><path id="Path_1" data-name="Path 1" d="M1758.15,790.06l12.55,34.47a11.11,11.11,0,0,0,20.89-7.6L1779,782.46Z" transform="translate(0 -582.23)"/></g></g><g id="Group_7" data-name="Group 7"><g id="Group_6" data-name="Group 6"><path id="Path_2" data-name="Path 2" d="M1783.55,780.82l12.55,34.47a11.12,11.12,0,0,0,20.89-7.61l-12.55-34.47Z" transform="translate(0 -582.23)"/></g></g><g id="Group_9" data-name="Group 9"><g id="Group_8" data-name="Group 8"><path id="Path_3" data-name="Path 3" d="M1696.36,698.36,1691,723.94a9.27,9.27,0,0,0,4,9.69c16.73,10.83,18.85,12.2,19.23,12.43C1714.24,746.07,1709.88,735.58,1696.36,698.36Z" transform="translate(0 -582.23)"/></g></g><g id="Group_11" data-name="Group 11"><g id="Group_10" data-name="Group 10"><path id="Path_4" data-name="Path 4" d="M1807,657.56l-35-39.59a9.26,9.26,0,0,0-13.89,12.26l15.09,17.08c-7.65-1.28-11.47-.91-14.29.12l-46.82,17a22,22,0,0,0-14.28,18.18c2.36-2.29,1.52-1.62,33-13.08L1777,652.79a11.48,11.48,0,0,1,14.69,6.85l4.56,12.55a10,10,0,0,0,7,.21,9.26,9.26,0,0,0,3.78-14.84Z" transform="translate(0 -582.23)"/></g></g><g id="Group_13" data-name="Group 13"><g id="Group_12" data-name="Group 12"><path id="Path_5" data-name="Path 5" d="M1826.37,729.21l0-.08-.37.14c-.78.13-15.25,5.31-15.25,5.31l-5-13.79a11.22,11.22,0,0,1-3.3,1.87l-5.69,2.07A14.35,14.35,0,0,1,1804,737a1.77,1.77,0,0,1,0,.23l-8.45,3.07a6.68,6.68,0,0,0-8.23-9.34l-12.14,4.42-3.55-9.74,28.1-10.23a3.75,3.75,0,0,0,2.24-4.82h0l-17.59-48.34a3.76,3.76,0,0,0-4.82-2.24h0l-75.06,27.32a3.76,3.76,0,0,0-2.25,4.82h0l17.6,48.33a3.76,3.76,0,0,0,4.82,2.25h0l28.09-10.22,3.55,9.73-12.14,4.42a6.69,6.69,0,0,0-.3,12.46l-8.44,3.07-.15-.18a14.36,14.36,0,0,1-2.29-14.12l-5.69,2.07a11.37,11.37,0,0,1-4.08.69l5.06,13.91s-14.11,5.21-14.79,5.61l-.19.07,0,0a13.34,13.34,0,0,0-5.61,15.94l24.59,67.56a6.69,6.69,0,0,0,12.58-4.57l-20.18-55.45,107.81-39.23L1852.72,810a6.69,6.69,0,0,0,12.58-4.57l-24.59-67.57A13.33,13.33,0,0,0,1826.37,729.21Zm-70.08-16.46a10.88,10.88,0,1,1,6.5-14h0A10.88,10.88,0,0,1,1756.29,712.75Z" transform="translate(0 -582.23)"/></g></g><g id="Group_15" data-name="Group 15"><g id="Group_14" data-name="Group 14"><circle id="Ellipse_1" data-name="Ellipse 1" cx="1726.89" cy="49.94" r="19.2"/></g></g></g><path id="standing-desk-work-do-programmer-svgrepo-com" d="M1359.65,817.09l-8.87,101.64,6,.43-.66,9.48-57.61-4,.66-9.49,39.16,2.75,8.86-101.64-67.44-4.73.55-7.76-19.49-1.36a9.34,9.34,0,0,1-8.5-9.79L1254,769.3a2.36,2.36,0,0,0-1.93-2.73,2.45,2.45,0,0,0-.48,0,2.3,2.3,0,0,0-2.72,1.76,2.35,2.35,0,0,0,0,.65l-1.64,23.28a14.54,14.54,0,0,0,13.31,15.32l-.51,0-.39,5.52a6,6,0,0,1,.05,1.74L1253,909.45a11.93,11.93,0,0,1-23.8-1.67l5-71.75a23.59,23.59,0,0,1-12.53-18.91c-.76-16.34.18-22.34,3.43-39.1,3.75-19,17.8-36.36,35.83-36.48a25,25,0,0,1,5.18.36,9,9,0,0,1,7.46,9.71l-2.3,32.77,42.43,3a8.85,8.85,0,0,1,8.18,9.41v.17l49.84,3.5-1.21,17.25-10.86-.76ZM1351,752.7l10.8,38.72-23.28-1.63-.5,7.07L1368.2,799l.49-7.07-14-49.52,11.65-32.63L1358.7,707l-24,67.82,7.78,2.8ZM1271.78,738a18.5,18.5,0,1,0-17.16-19.74A18.48,18.48,0,0,0,1271.78,738Z" transform="translate(0 -582.23)"/></svg>