<?xml version="1.0" encoding="utf-8"?>
<!-- Generator: Adobe Illustrator 24.2.0, SVG Export Plug-In . SVG Version: 6.00 Build 0)  -->
<svg version="1.1" id="Layer_1" xmlns="http://www.w3.org/2000/svg" xmlns:xlink="http://www.w3.org/1999/xlink" x="0px" y="0px"
	 viewBox="0 0 1920 1080" style="enable-background:new 0 0 1920 1080;" xml:space="preserve">
<style type="text/css">
	.st0{fill:#0FFBF9;}
	.st1{fill:#B21135;}
</style>
<g>
	<path id="Path_11_2_" class="st0" d="M7.3,989.6L162.9,905l1337.6,143.5l426.8-160.2V1210H7.3V989.6z"/>
	<path id="work-on-computer-employee-software-engineer-programmer-svgrepo-com_2_" class="st0" d="M315.1,716.5
		c12.4,1.5,21.2,12.8,19.7,25.2c-1.5,12.4-12.8,21.2-25.2,19.7c-12.4-1.5-21.2-12.8-19.7-25.2l0,0
		C291.5,723.8,302.7,715,315.1,716.5C315.1,716.5,315.1,716.5,315.1,716.5L315.1,716.5z M421.9,831.4l-17.4-70.6h-0.1l19-44.3
		l-10-4.2l-37.6,87.6l10,4.2l11.6-27l11.6,45.8l-25.1-3.1l-0.8,6.8l-25.7-3.2v-0.3c0.8-6.7-3.3-13-10-13.8l-41.3-5.1
		c0,0-7.7-33.6-11-41c-2.6-5.8-7.3-9.8-13.9-10.6c-10.2-1.3-19,6.2-26.1,17.8c-11.7,19.1-18.7,43.5-19.3,66.8
		c0,9.5,1.3,17.6,6.2,22.7l-18.4-2.3l8.9-72.3l-15.6-1.9l-19.1,156.2l15.6,1.9l8.4-68.4l74,9.1l-16.6,50c-2.6,7.5,1.5,15.7,9,18.3
		c7.5,2.6,15.7-1.5,18.3-9l0,0c0-0.1,0-0.1,0-0.2l14.1-42.4l7.5,31.2c1.4,5.9,6.3,10.2,12.3,11c1.7,0.2,3.4,0.1,5.1-0.3
		c7.7-1.9,12.5-9.6,10.7-17.3l-16.2-68c-1.4-5.9-6.3-10.2-12.3-11l-38.3-4.7l1.1-9l125.1,15.4l-14.5,118.3l15.6,1.9l16.4-133.8
		L421.9,831.4z"/>
	<g id="programmer-svgrepo-com_2_">
		<g id="Group_5_2_">
			<g id="Group_4_2_">
				<path id="Path_1_2_" class="st0" d="M1765.4,920.1l12.6,34.5c2.1,5.8,8.5,8.7,14.2,6.6s8.7-8.5,6.6-14.2l0,0l-12.6-34.5
					L1765.4,920.1z"/>
			</g>
		</g>
		<g id="Group_7_2_">
			<g id="Group_6_2_">
				<path id="Path_2_2_" class="st0" d="M1790.8,910.8l12.6,34.5c2.2,5.7,8.7,8.5,14.4,6.3c5.5-2.2,8.4-8.3,6.5-13.9l-12.6-34.5
					L1790.8,910.8z"/>
			</g>
		</g>
		<g id="Group_9_2_">
			<g id="Group_8_2_">
				<path id="Path_3_2_" class="st0" d="M1703.7,828.4l-5.4,25.6c-0.8,3.7,0.8,7.6,4,9.7c16.7,10.8,18.8,12.2,19.2,12.4
					C1721.5,876.1,1717.2,865.6,1703.7,828.4z"/>
			</g>
		</g>
		<g id="Group_11_2_">
			<g id="Group_10_2_">
				<path id="Path_4_2_" class="st0" d="M1814.3,787.6l-35-39.6c-3.4-3.8-9.2-4.2-13.1-0.8c-3.8,3.4-4.2,9.2-0.8,13.1l15.1,17.1
					c-7.7-1.3-11.5-0.9-14.3,0.1l-46.8,17c-7.8,2.9-13.3,9.9-14.3,18.2c2.4-2.3,1.5-1.6,33-13.1l46.2-16.7
					c5.9-2.2,12.5,0.9,14.7,6.8l4.6,12.5c2.2,0.9,4.7,1,7,0.2c4.8-1.7,7.3-7.1,5.5-11.9C1815.7,789.5,1815.1,788.5,1814.3,787.6
					L1814.3,787.6z"/>
			</g>
		</g>
		<g id="Group_13_2_">
			<g id="Group_12_2_">
				<path id="Path_5_2_" class="st0" d="M1833.7,859.2L1833.7,859.2l-0.4,0.1c-0.8,0.1-15.3,5.3-15.3,5.3l-5-13.8
					c-1,0.8-2.1,1.4-3.3,1.9l-5.7,2.1c4.4,2.5,7.2,7.2,7.2,12.3c0,0.1,0,0.2,0,0.2l-8.4,3.1c1.7-3.3,0.4-7.3-2.9-9
					c-1.7-0.9-3.6-1-5.4-0.3l-12.1,4.4l-3.6-9.7l28.1-10.2c1.9-0.7,3-2.9,2.2-4.8c0,0,0,0,0,0l0,0l-17.6-48.3
					c-0.7-1.9-2.9-3-4.8-2.2l0,0l-75.1,27.3c-2,0.7-3,2.9-2.3,4.8c0,0,0,0,0,0l0,0l17.6,48.3c0.7,2,2.9,3,4.8,2.3c0,0,0,0,0,0l0,0
					l28.1-10.2l3.6,9.7l-12.1,4.4c-3.5,1.3-5.3,5.1-4,8.6c0.6,1.8,2,3.2,3.7,3.9l-8.4,3.1l-0.2-0.2c-3.2-4-4.1-9.3-2.3-14.1
					l-5.7,2.1c-1.3,0.5-2.7,0.7-4.1,0.7l5.1,13.9c0,0-14.1,5.2-14.8,5.6l-0.2,0.1l0,0c-5.4,3.3-7.8,10-5.6,15.9l24.6,67.6
					c1.3,3.5,5.1,5.3,8.6,4c3.5-1.3,5.3-5.1,4-8.6l0,0l-20.2-55.5l107.8-39.2L1860,940c1.3,3.5,5.1,5.3,8.6,4c3.5-1.3,5.3-5.1,4-8.6
					l0,0l-24.6-67.6C1845.9,862,1839.9,858.4,1833.7,859.2z M1763.6,842.8c-5.6,2-11.9-0.9-13.9-6.5c-2-5.6,0.9-11.9,6.5-13.9
					c5.6-2,11.8,0.8,13.9,6.5l0,0C1772.2,834.4,1769.3,840.7,1763.6,842.8C1763.6,842.8,1763.6,842.8,1763.6,842.8z"/>
			</g>
		</g>
		<g id="Group_15_2_">
			<g id="Group_14_2_">
				<circle id="Ellipse_1_2_" class="st0" cx="1734.2" cy="762.2" r="19.2"/>
			</g>
		</g>
	</g>
	<path id="standing-desk-work-do-programmer-svgrepo-com_2_" class="st0" d="M1366.9,947.1l-8.9,101.6l6,0.4l-0.7,9.5l-57.6-4
		l0.7-9.5l39.2,2.8l8.9-101.6l-67.4-4.7l0.6-7.8l-19.5-1.4c-5-0.4-8.8-4.8-8.5-9.8l1.7-23.3c0.2-1.3-0.6-2.5-1.9-2.7c0,0,0,0,0,0
		c-0.2,0-0.3,0-0.5,0c-1.2-0.3-2.5,0.5-2.7,1.8c0,0.2,0,0.4,0,0.7l-1.6,23.3c-0.5,7.9,5.5,14.7,13.3,15.3h-0.5l-0.4,5.5
		c0.1,0.6,0.1,1.2,0.1,1.7l-6.6,94.7c-0.5,6.6-6.3,11.5-12.9,10.9c-6.5-0.5-11.3-6.1-10.9-12.6l5-71.8c-7.1-3.7-11.9-10.9-12.5-18.9
		c-0.8-16.3,0.2-22.3,3.4-39.1c3.8-19,17.8-36.4,35.8-36.5c1.7-0.1,3.5,0.1,5.2,0.4c4.6,0.8,7.9,5,7.5,9.7l-2.3,32.8l42.4,3
		c4.8,0.4,8.5,4.6,8.2,9.4v0.2l49.8,3.5l-1.2,17.3L1366.9,947.1L1366.9,947.1z M1358.3,882.7l10.8,38.7l-23.3-1.6l-0.5,7.1l30.2,2.1
		l0.5-7.1l-14-49.5l11.7-32.6l-7.6-2.8l-24,67.8l7.8,2.8L1358.3,882.7z M1279.1,868c10.2,0.7,19-7,19.7-17.2s-7-19-17.2-19.7
		c-10.2-0.7-19,7-19.7,17.2c0,0,0,0,0,0C1261.2,858.5,1268.9,867.3,1279.1,868C1279.1,868,1279.1,868,1279.1,868z"/>
</g>
<g>
	<path id="Path_11" class="st1" d="M-7.3,991.9l156.8-79l1347.8,133.9l430-149.5v300.3H-7.3V991.9z"/>
	<path id="work-on-computer-employee-software-engineer-programmer-svgrepo-com" class="st1" d="M301.1,710.5
		c12.4,1.5,21.2,12.8,19.7,25.2c-1.5,12.4-12.8,21.2-25.2,19.7c-12.4-1.5-21.2-12.8-19.7-25.2l0,0
		C277.4,717.9,288.6,709,301.1,710.5C301,710.5,301,710.5,301.1,710.5L301.1,710.5z M407.9,825.4l-17.4-70.6h-0.1l19-44.3l-10-4.2
		l-37.6,87.6l10,4.2l11.6-27l11.6,45.8l-25.1-3.1l-0.8,6.8l-25.7-3.2v-0.3c0.8-6.7-3.3-13-10-13.8l-41.3-5.1c0,0-7.7-33.6-11-41
		c-2.6-5.8-7.3-9.8-13.9-10.6c-10.2-1.3-19,6.2-26.1,17.8c-11.7,19.1-18.7,43.5-19.3,66.8c0,9.5,1.3,17.6,6.2,22.7l-18.4-2.3
		l8.9-72.3l-15.6-1.9l-19.1,156.2l15.6,1.9l8.4-68.4l74,9.1l-16.6,50c-2.6,7.5,1.5,15.7,9,18.3c7.5,2.6,15.7-1.5,18.3-9l0,0
		c0-0.1,0-0.1,0-0.2l14.1-42.4l7.5,31.2c1.4,5.9,6.3,10.2,12.3,11c1.7,0.2,3.4,0.1,5.1-0.3c7.7-1.9,12.5-9.6,10.7-17.3l-16.2-68
		c-1.4-5.9-6.3-10.2-12.3-11l-38.3-4.7l1.1-9l125.1,15.4l-14.5,118.3l15.6,1.9l16.4-133.8L407.9,825.4z"/>
	<g id="programmer-svgrepo-com">
		<g id="Group_5">
			<g id="Group_4">
				<path id="Path_1" class="st1" d="M1751.4,914.1l12.6,34.5c2.1,5.8,8.5,8.7,14.2,6.6s8.7-8.5,6.6-14.2l0,0l-12.6-34.5
					L1751.4,914.1z"/>
			</g>
		</g>
		<g id="Group_7">
			<g id="Group_6">
				<path id="Path_2" class="st1" d="M1776.8,904.9l12.6,34.5c2.2,5.7,8.7,8.5,14.4,6.3c5.5-2.2,8.4-8.3,6.5-13.9l-12.6-34.5
					L1776.8,904.9z"/>
			</g>
		</g>
		<g id="Group_9">
			<g id="Group_8">
				<path id="Path_3" class="st1" d="M1689.6,822.4l-5.4,25.6c-0.8,3.7,0.8,7.6,4,9.7c16.7,10.8,18.8,12.2,19.2,12.4
					C1707.5,870.1,1703.1,859.7,1689.6,822.4z"/>
			</g>
		</g>
		<g id="Group_11">
			<g id="Group_10">
				<path id="Path_4" class="st1" d="M1800.2,781.6l-35-39.6c-3.4-3.8-9.2-4.2-13.1-0.8c-3.8,3.4-4.2,9.2-0.8,13.1l15.1,17.1
					c-7.7-1.3-11.5-0.9-14.3,0.1l-46.8,17c-7.8,2.9-13.3,9.9-14.3,18.2c2.4-2.3,1.5-1.6,33-13.1l46.2-16.7
					c5.9-2.2,12.5,0.9,14.7,6.8l4.6,12.5c2.2,0.9,4.7,1,7,0.2c4.8-1.7,7.3-7.1,5.5-11.9C1801.6,783.5,1801,782.5,1800.2,781.6
					L1800.2,781.6z"/>
			</g>
		</g>
		<g id="Group_13">
			<g id="Group_12">
				<path id="Path_5" class="st1" d="M1819.6,853.3L1819.6,853.3l-0.4,0.1c-0.8,0.1-15.3,5.3-15.3,5.3l-5-13.8
					c-1,0.8-2.1,1.4-3.3,1.9l-5.7,2.1c4.4,2.5,7.2,7.2,7.2,12.3c0,0.1,0,0.2,0,0.2l-8.4,3.1c1.7-3.3,0.4-7.3-2.9-9
					c-1.7-0.9-3.6-1-5.4-0.3l-12.1,4.4l-3.6-9.7l28.1-10.2c1.9-0.7,3-2.9,2.2-4.8c0,0,0,0,0,0l0,0l-17.6-48.3
					c-0.7-1.9-2.9-3-4.8-2.2l0,0l-75.1,27.3c-2,0.7-3,2.9-2.3,4.8c0,0,0,0,0,0l0,0l17.6,48.3c0.7,2,2.9,3,4.8,2.3c0,0,0,0,0,0l0,0
					l28.1-10.2l3.6,9.7l-12.1,4.4c-3.5,1.3-5.3,5.1-4,8.6c0.6,1.8,2,3.2,3.7,3.9l-8.4,3.1l-0.2-0.2c-3.2-4-4.1-9.3-2.3-14.1
					l-5.7,2.1c-1.3,0.5-2.7,0.7-4.1,0.7l5.1,13.9c0,0-14.1,5.2-14.8,5.6l-0.2,0.1l0,0c-5.4,3.3-7.8,10-5.6,15.9l24.6,67.6
					c1.3,3.5,5.1,5.3,8.6,4c3.5-1.3,5.3-5.1,4-8.6l0,0l-20.2-55.5l107.8-39.2l20.2,55.5c1.3,3.5,5.1,5.3,8.6,4
					c3.5-1.3,5.3-5.1,4-8.6l0,0l-24.6-67.6C1831.8,856,1825.8,852.4,1819.6,853.3z M1749.5,836.8c-5.6,2-11.9-0.9-13.9-6.5
					c-2-5.6,0.9-11.9,6.5-13.9c5.6-2,11.8,0.8,13.9,6.5l0,0C1758.1,828.5,1755.2,834.7,1749.5,836.8
					C1749.6,836.8,1749.5,836.8,1749.5,836.8z"/>
			</g>
		</g>
		<g id="Group_15">
			<g id="Group_14">
				<circle id="Ellipse_1" class="st1" cx="1720.1" cy="756.2" r="19.2"/>
			</g>
		</g>
	</g>
	<path id="standing-desk-work-do-programmer-svgrepo-com" class="st1" d="M1352.9,941.2l-8.9,101.6l6,0.4l-0.7,9.5l-57.6-4l0.7-9.5
		l39.2,2.8l8.9-101.6l-67.4-4.7l0.6-7.8l-19.5-1.4c-5-0.4-8.8-4.8-8.5-9.8l1.7-23.3c0.2-1.3-0.6-2.5-1.9-2.7c0,0,0,0,0,0
		c-0.2,0-0.3,0-0.5,0c-1.2-0.3-2.5,0.5-2.7,1.8c0,0.2,0,0.4,0,0.7l-1.6,23.3c-0.5,7.9,5.5,14.7,13.3,15.3h-0.5l-0.4,5.5
		c0.1,0.6,0.1,1.2,0.1,1.7l-6.6,94.7c-0.5,6.6-6.3,11.5-12.9,10.9c-6.5-0.5-11.3-6.1-10.9-12.6l5-71.8c-7.1-3.7-11.9-10.9-12.5-18.9
		c-0.8-16.3,0.2-22.3,3.4-39.1c3.8-19,17.8-36.4,35.8-36.5c1.7-0.1,3.5,0.1,5.2,0.4c4.6,0.8,7.9,5,7.5,9.7l-2.3,32.8l42.4,3
		c4.8,0.4,8.5,4.6,8.2,9.4v0.2l49.8,3.5l-1.2,17.3L1352.9,941.2L1352.9,941.2z M1344.2,876.8l10.8,38.7l-23.3-1.6l-0.5,7.1l30.2,2.1
		l0.5-7.1l-14-49.5l11.7-32.6l-7.6-2.8l-24,67.8l7.8,2.8L1344.2,876.8z M1265,862.1c10.2,0.7,19-7,19.7-17.2s-7-19-17.2-19.7
		c-10.2-0.7-19,7-19.7,17.2c0,0,0,0,0,0C1247.1,852.5,1254.8,861.4,1265,862.1C1265,862.1,1265,862.1,1265,862.1z"/>
</g>
<g>
	<path id="Path_11_1_" d="M0,1003.6l155.6-79l1337.6,133.9L1920,909v300.3H0V1003.6z"/>
	<path id="work-on-computer-employee-software-engineer-programmer-svgrepo-com_1_" d="M307.8,715.8c12.4,1.5,21.2,12.8,19.7,25.2
		c-1.5,12.4-12.8,21.2-25.2,19.7c-12.4-1.5-21.2-12.8-19.7-25.2l0,0C284.2,723.1,295.4,714.3,307.8,715.8
		C307.8,715.8,307.8,715.8,307.8,715.8L307.8,715.8z M414.6,830.6l-17.4-70.6h-0.1l19-44.3l-10-4.2l-37.6,87.6l10,4.2l11.6-27
		l11.6,45.8l-25.1-3.1l-0.8,6.8l-25.7-3.2v-0.3c0.8-6.7-3.3-13-10-13.8l-41.3-5.1c0,0-7.7-33.6-11-41c-2.6-5.8-7.3-9.8-13.9-10.6
		c-10.2-1.3-19,6.2-26.1,17.8c-11.7,19.1-18.7,43.5-19.3,66.8c0,9.5,1.3,17.6,6.2,22.7l-18.4-2.3l8.9-72.3l-15.6-1.9l-19.1,156.2
		l15.6,1.9l8.4-68.4l74,9.1l-16.6,50c-2.6,7.5,1.5,15.7,9,18.3c7.5,2.6,15.7-1.5,18.3-9l0,0c0-0.1,0-0.1,0-0.2l14.1-42.4l7.5,31.2
		c1.4,5.9,6.3,10.2,12.3,11c1.7,0.2,3.4,0.1,5.1-0.3c7.7-1.9,12.5-9.6,10.7-17.3l-16.2-68c-1.4-5.9-6.3-10.2-12.3-11l-38.3-4.7
		l1.1-9l125.1,15.4l-14.5,118.3l15.6,1.9L425.6,832L414.6,830.6z"/>
	<g id="programmer-svgrepo-com_1_">
		<g id="Group_5_1_">
			<g id="Group_4_1_">
				<path id="Path_1_1_" d="M1758.2,919.4l12.6,34.5c2.1,5.8,8.5,8.7,14.2,6.6s8.7-8.5,6.6-14.2l0,0l-12.6-34.5L1758.2,919.4z"/>
			</g>
		</g>
		<g id="Group_7_1_">
			<g id="Group_6_1_">
				<path id="Path_2_1_" d="M1783.6,910.1l12.6,34.5c2.2,5.7,8.7,8.5,14.4,6.3c5.5-2.2,8.4-8.3,6.5-13.9l-12.6-34.5L1783.6,910.1z"
					/>
			</g>
		</g>
		<g id="Group_9_1_">
			<g id="Group_8_1_">
				<path id="Path_3_1_" d="M1696.4,827.7l-5.4,25.6c-0.8,3.7,0.8,7.6,4,9.7c16.7,10.8,18.8,12.2,19.2,12.4
					C1714.2,875.4,1709.9,864.9,1696.4,827.7z"/>
			</g>
		</g>
		<g id="Group_11_1_">
			<g id="Group_10_1_">
				<path id="Path_4_1_" d="M1807,786.9l-35-39.6c-3.4-3.8-9.2-4.2-13.1-0.8c-3.8,3.4-4.2,9.2-0.8,13.1l15.1,17.1
					c-7.7-1.3-11.5-0.9-14.3,0.1l-46.8,17c-7.8,2.9-13.3,9.9-14.3,18.2c2.4-2.3,1.5-1.6,33-13.1l46.2-16.7
					c5.9-2.2,12.5,0.9,14.7,6.8l4.6,12.5c2.2,0.9,4.7,1,7,0.2c4.8-1.7,7.3-7.1,5.5-11.9C1808.4,788.7,1807.8,787.7,1807,786.9
					L1807,786.9z"/>
			</g>
		</g>
		<g id="Group_13_1_">
			<g id="Group_12_1_">
				<path id="Path_5_1_" d="M1826.4,858.5L1826.4,858.5l-0.4,0.1c-0.8,0.1-15.3,5.3-15.3,5.3l-5-13.8c-1,0.8-2.1,1.4-3.3,1.9
					l-5.7,2.1c4.4,2.5,7.2,7.2,7.2,12.3c0,0.1,0,0.2,0,0.2l-8.4,3.1c1.7-3.3,0.4-7.3-2.9-9c-1.7-0.9-3.6-1-5.4-0.3l-12.1,4.4
					l-3.6-9.7l28.1-10.2c1.9-0.7,3-2.9,2.2-4.8c0,0,0,0,0,0l0,0l-17.6-48.3c-0.7-1.9-2.9-3-4.8-2.2l0,0l-75.1,27.3
					c-2,0.7-3,2.9-2.3,4.8c0,0,0,0,0,0l0,0l17.6,48.3c0.7,2,2.9,3,4.8,2.3c0,0,0,0,0,0l0,0l28.1-10.2l3.6,9.7l-12.1,4.4
					c-3.5,1.3-5.3,5.1-4,8.6c0.6,1.8,2,3.2,3.7,3.9l-8.4,3.1l-0.2-0.2c-3.2-4-4.1-9.3-2.3-14.1l-5.7,2.1c-1.3,0.5-2.7,0.7-4.1,0.7
					l5.1,13.9c0,0-14.1,5.2-14.8,5.6l-0.2,0.1l0,0c-5.4,3.3-7.8,10-5.6,15.9l24.6,67.6c1.3,3.5,5.1,5.3,8.6,4c3.5-1.3,5.3-5.1,4-8.6
					l0,0l-20.2-55.5l107.8-39.2l20.2,55.5c1.3,3.5,5.1,5.3,8.6,4c3.5-1.3,5.3-5.1,4-8.6l0,0l-24.6-67.6
					C1838.6,861.3,1832.6,857.7,1826.4,858.5z M1756.3,842c-5.6,2-11.9-0.9-13.9-6.5c-2-5.6,0.9-11.9,6.5-13.9
					c5.6-2,11.8,0.8,13.9,6.5l0,0C1764.9,833.7,1762,839.9,1756.3,842C1756.3,842,1756.3,842,1756.3,842z"/>
			</g>
		</g>
		<g id="Group_15_1_">
			<g id="Group_14_1_">
				<circle id="Ellipse_1_1_" cx="1726.9" cy="761.5" r="19.2"/>
			</g>
		</g>
	</g>
	<path id="standing-desk-work-do-programmer-svgrepo-com_1_" d="M1359.7,946.4l-8.9,101.6l6,0.4l-0.7,9.5l-57.6-4l0.7-9.5l39.2,2.8
		l8.9-101.6l-67.4-4.7l0.6-7.8l-19.5-1.4c-5-0.4-8.8-4.8-8.5-9.8l1.7-23.3c0.2-1.3-0.6-2.5-1.9-2.7c0,0,0,0,0,0c-0.2,0-0.3,0-0.5,0
		c-1.2-0.3-2.5,0.5-2.7,1.8c0,0.2,0,0.4,0,0.7l-1.6,23.3c-0.5,7.9,5.5,14.7,13.3,15.3h-0.5l-0.4,5.5c0.1,0.6,0.1,1.2,0.1,1.7
		l-6.6,94.7c-0.5,6.6-6.3,11.5-12.9,10.9c-6.5-0.5-11.3-6.1-10.9-12.6l5-71.7c-7.1-3.7-11.9-10.9-12.5-18.9
		c-0.8-16.3,0.2-22.3,3.4-39.1c3.8-19,17.8-36.4,35.8-36.5c1.7-0.1,3.5,0.1,5.2,0.4c4.6,0.8,7.9,5,7.5,9.7l-2.3,32.8l42.4,3
		c4.8,0.4,8.5,4.6,8.2,9.4v0.2l49.8,3.5l-1.2,17.3L1359.7,946.4L1359.7,946.4z M1351,882l10.8,38.7l-23.3-1.6l-0.5,7.1l30.2,2.1
		l0.5-7.1l-14-49.5l11.7-32.6l-7.6-2.8l-24,67.8l7.8,2.8L1351,882z M1271.8,867.3c10.2,0.7,19-7,19.7-17.2s-7-19-17.2-19.7
		c-10.2-0.7-19,7-19.7,17.2c0,0,0,0,0,0C1253.9,857.7,1261.6,866.6,1271.8,867.3C1271.8,867.3,1271.8,867.3,1271.8,867.3z"/>
</g>
</svg>
