<?xml version="1.0" encoding="utf-8"?>
<!-- Generator: Adobe Illustrator 24.2.0, SVG Export Plug-In . SVG Version: 6.00 Build 0)  -->
<svg version="1.1" id="Layer_1" xmlns="http://www.w3.org/2000/svg" xmlns:xlink="http://www.w3.org/1999/xlink" x="0px" y="0px"
	 viewBox="0 0 431 637" style="enable-background:new 0 0 431 637;" xml:space="preserve">
<style type="text/css">
	.st0{fill:#2C4349;}
	.st1{fill:#46646C;}
	.st2{fill:#1D2C30;}
	.st3{fill:#5E2D02;}
	.st4{fill:#442204;}
	.st5{fill:#2F2F30;}
	.st6{clip-path:url(#SVGID_2_);}
	.st7{fill:none;stroke:#1A1818;stroke-miterlimit:10;}
	.st8{fill:#373739;}
	.st9{fill:#FFFFFF;}
	.st10{fill:#B8BABC;}
	.st11{fill:#D3D5D6;}
	.st12{fill:#CED0D2;}
	.st13{fill:#E0E1E3;}
	.st14{fill:#E93D4C;}
	.st15{fill:#FFEB4F;}
	.st16{fill:#96CB96;}
	.st17{fill:none;stroke:#6D6F72;stroke-width:15;stroke-miterlimit:10;}
	.st18{fill:#207CC1;}
	.st19{fill:#914F99;}
	.st20{fill:#7AC08A;}
	.st21{fill:#FFF288;}
	.st22{fill:#E36016;}
	.st23{fill:#FFF18B;}
	.st24{fill:#E25F16;}
	.st25{fill:none;stroke:#ED6A40;stroke-width:6;stroke-miterlimit:10;}
	.st26{fill:#F9B5A8;stroke:#ED6A40;stroke-width:6;stroke-miterlimit:10;}
	.st27{fill:#758086;stroke:#ED6A40;stroke-width:6;stroke-miterlimit:10;}
	.st28{fill:none;stroke:#758086;stroke-width:6;stroke-miterlimit:10;}
	.st29{fill:#ED6A40;}
	.st30{fill:#692F22;}
</style>
<rect x="-2830" y="-486" class="st0" width="1636" height="2247"/>
<rect x="-2838" y="-2489" class="st0" width="1920" height="1080"/>
<g>
	<rect x="-2829" y="426" class="st1" width="1634" height="1335"/>
	<polyline class="st1" points="-2829.1,426.4 -2011.5,-391.2 -1194.9,425.4 	"/>
</g>
<polygon class="st2" points="-1195,1761 -2829,1761 -2513,1464 -1498,1464 "/>
<g id="Group_13" transform="translate(-67 -3486.984)">
	<g id="Group_12">
		<rect id="Rectangle_18" x="-2447.2" y="4593.5" class="st3" width="92.4" height="415.8"/>
		<rect id="Rectangle_19" x="-1523.9" y="4591.9" class="st3" width="92.4" height="415.8"/>
		<path id="Path_30" class="st4" d="M-2451,4533.6h993.8l191.7,117.4l-1360.4-1.2L-2451,4533.6z"/>
		<path id="Path_33" class="st4" d="M-2354.8,4593.5h47.7v366.8l-47.7,49V4593.5z"/>
		<path id="Path_34" class="st4" d="M-1523.9,4591.9h-47.7v366.8l47.7,49V4591.9z"/>
		<rect id="Rectangle_13" x="-2625.2" y="4649.5" class="st3" width="1361.1" height="66.7"/>
		<rect id="Rectangle_15" x="-2625.2" y="4716.2" class="st3" width="92.4" height="415.8"/>
		<rect id="Rectangle_16" x="-1356.5" y="4716.2" class="st3" width="92.4" height="415.8"/>
		<path id="Path_31" class="st4" d="M-2532.8,4716.2h47.7v366.8l-47.7,49V4716.2z"/>
		<path id="Path_32" class="st4" d="M-1356.5,4716.2h-47.7v366.8l47.7,49V4716.2z"/>
	</g>
	<g id="Group_8" transform="translate(0 170)">
		<g id="Group_6" transform="translate(0 2141)">
			<g id="Group_5" transform="translate(0 34.88)">
				<g id="Group_4" transform="translate(171 1141.104)">
					<g id="Group_3">
						<rect id="Rectangle_3" x="-2717.3" y="407.9" class="st5" width="1194.5" height="306.6"/>
						<g id="Group_2" transform="translate(0 0)">
							<g>
								<defs>
									<rect id="SVGID_1_" x="-2717.5" y="90" width="1194.8" height="1026.9"/>
								</defs>
								<clipPath id="SVGID_2_">
									<use xlink:href="#SVGID_1_"  style="overflow:visible;"/>
								</clipPath>
								<g id="Mask_Group_1" class="st6">
									<path id="Path_1" class="st7" d="M-1522.8,396v305.8h-1194.5V396"/>
									<path id="Path_2" class="st5" d="M-2717.3,418.3V114.4c0-13.4,12.2-24.3,27.2-24.3H-1550c15,0,27.2,10.9,27.2,24.3v303.9"
										/>
									<path id="Path_3" class="st7" d="M-2717.3,396V112.8c0-12.5,12.2-22.6,27.2-22.6H-1550c15,0,27.2,10.1,27.2,22.6V396"/>
									<rect id="Rectangle_4" x="-2666.8" y="133.7" class="st8" width="1093.6" height="545.8"/>
									<path id="Path_4" class="st9" d="M-1522.8,772.4v31.4c0,21.6-17.8,39.1-39.7,39.1h-1115c-21.9,0-39.7-17.5-39.7-39.1v-31.4
										"/>
									<path id="Path_5" class="st9" d="M-2717.3,772.4v-70.5h1194.5v70.5"/>
									<path id="Path_6" class="st9" d="M-1920.3,1052.2h-399.5l42.6-209.2h314.3L-1920.3,1052.2z"/>
									<path id="Path_7" class="st9" d="M-1860.4,1106.3h-519.4l59.9-54.2h399.5L-1860.4,1106.3z"/>
									<path id="Path_8" class="st10" d="M-1956.8,872.6l-326.4-0.2l6-29.5h314.3L-1956.8,872.6z"/>
									<path id="Path_9" class="st11" d="M-1956.8,872.6l-326.4-0.2l6-29.5h314.3L-1956.8,872.6z"/>
									<path id="Path_10" class="st12" d="M-1860.4,1106.3h-519.4l59.9-54.2h399.5L-1860.4,1106.3z"/>
									<rect id="Rectangle_5" x="-2379.7" y="1106.3" class="st9" width="519.4" height="10.5"/>
									<path id="Path_11" class="st13" d="M-2152.6,779.3V764c0-13.5,11.1-24.4,24.8-24.4h15.6c13.7,0,24.8,10.9,24.8,24.4v15.3
										c0,13.5-11.1,24.4-24.8,24.4h-15.6C-2141.5,803.7-2152.6,792.8-2152.6,779.3"/>
									<path id="Path_12" class="st9" d="M-2115.9,795.2h-8.2c-10.8,0.1-19.7-8.6-19.8-19.5v-8.1c0.1-10.8,9-19.5,19.8-19.5h8.2
										c10.8-0.1,19.7,8.6,19.8,19.5v8.1C-2096.3,786.6-2105.1,795.3-2115.9,795.2"/>
									<rect id="Rectangle_6" x="-2664.5" y="136.6" class="st13" width="1088.8" height="36.1"/>
									<path id="Path_13" class="st14" d="M-2630.7,154.7c0.1,5.3-4.2,9.8-9.5,9.8c-5.3,0.1-9.8-4.2-9.8-9.5
										c-0.1-5.3,4.2-9.8,9.5-9.8c0.1,0,0.1,0,0.2,0C-2635,145.1-2630.7,149.4-2630.7,154.7"/>
									<path id="Path_14" class="st15" d="M-2594.8,154.7c0.1,5.3-4.2,9.8-9.5,9.8c-5.3,0.1-9.8-4.2-9.8-9.5
										c-0.1-5.3,4.2-9.8,9.5-9.8c0.1,0,0.1,0,0.2,0C-2599.2,145.1-2594.9,149.4-2594.8,154.7"/>
									<path id="Path_15" class="st16" d="M-2559.9,155.4c0.1,5.3-4.2,9.8-9.5,9.8c-5.3,0.1-9.8-4.2-9.8-9.5
										c-0.1-5.3,4.2-9.8,9.5-9.8c0.1,0,0.1,0,0.2,0C-2564.3,145.9-2560,150.1-2559.9,155.4"/>
									<line id="Line_1" class="st17" x1="-2604.5" y1="202.5" x2="-2604.5" y2="627.7"/>
									<path id="Path_16" class="st18" d="M-2308.9,254.6H-2544c-5.2,0-9.5-4.1-9.5-9.4v-8c0-5.2,4.3-9.4,9.5-9.4h235.1
										c5.2,0,9.5,4.1,9.5,9.4v8C-2299.5,250.5-2303.7,254.7-2308.9,254.6"/>
									<path id="Path_17" class="st19" d="M-2477.4,309.8h-66.6c-5.2,0-9.5-4.1-9.5-9.4v-8c0-5.2,4.3-9.4,9.5-9.4h66.6
										c5.2,0,9.5,4.1,9.5,9.4v8C-2468,305.6-2472.2,309.8-2477.4,309.8"/>
									<path id="Path_18" class="st20" d="M-2221.8,254.6h-38.7c-5.2,0-9.5-4.1-9.5-9.4v-8c0-5.2,4.3-9.4,9.5-9.4h38.7
										c5.2,0,9.5,4.1,9.5,9.4v8C-2212.3,250.5-2216.6,254.7-2221.8,254.6"/>
									<path id="Path_19" class="st19" d="M-2024.2,254.5H-2173c-5.2,0-9.5-4.1-9.5-9.4v-8c0-5.2,4.3-9.4,9.5-9.4h148.8
										c5.2,0,9.5,4.1,9.5,9.4v8C-2014.8,250.4-2019,254.6-2024.2,254.5"/>
									<path id="Path_20" class="st21" d="M-2046,309.8h-391.8c-5.2,0-9.5-4.1-9.5-9.4v-8c0-5.2,4.3-9.4,9.5-9.4h391.8
										c5.2,0,9.5,4.1,9.5,9.4v8C-2036.5,305.6-2040.8,309.8-2046,309.8"/>
									<path id="Path_21" class="st19" d="M-2389.2,484h-154.2c-5.2,0-9.5-4.1-9.5-9.4v-8c0-5.2,4.3-9.4,9.5-9.4h154.2
										c5.2,0,9.5,4.1,9.5,9.4v8C-2379.7,479.8-2383.9,484-2389.2,484"/>
									<path id="Path_22" class="st21" d="M-2357.6,537.5h-185.8c-5.2,0-9.5-4.1-9.5-9.4v-8c0-5.2,4.3-9.4,9.5-9.4h185.8
										c5.2,0,9.5,4.1,9.5,9.4v8C-2348.1,533.3-2352.3,537.5-2357.6,537.5"/>
									<path id="Path_23" class="st20" d="M-2215.7,483h-101.4c-5.2,0-9.5-4.1-9.5-9.4v-8c0-5.2,4.3-9.4,9.5-9.4h101.4
										c5.2,0,9.5,4.1,9.5,9.4v8C-2206.2,478.8-2210.5,483-2215.7,483"/>
									<path id="Path_24" class="st18" d="M-2123.5,482.9h-43.4c-5.2,0-9.5-4.1-9.5-9.4v-8c0-5.2,4.3-9.4,9.5-9.4h43.4
										c5.2,0,9.5,4.1,9.5,9.4v8C-2114.1,478.7-2118.3,482.9-2123.5,482.9"/>
									<path id="Path_25" class="st18" d="M-2039.9,538.1h-243.9c-5.2,0-9.5-4.1-9.5-9.4v-8c0-5.2,4.3-9.4,9.5-9.4h243.9
										c5.2,0,9.5,4.1,9.5,9.4v8C-2030.4,534-2034.7,538.2-2039.9,538.1"/>
									<path id="Path_26" class="st22" d="M-2494.5,418.3h-43.4c-5.2,0-9.5-4.1-9.5-9.4v-8c0-5.2,4.3-9.4,9.5-9.4h43.4
										c5.2,0,9.5,4.1,9.5,9.4v8C-2485.1,414.2-2489.3,418.4-2494.5,418.3"/>
									<path id="Path_27" class="st23" d="M-2416.4,418.3h-43.4c-5.2,0-9.5-4.1-9.5-9.4v-8c0-5.2,4.3-9.4,9.5-9.4h43.4
										c5.2,0,9.5,4.1,9.5,9.4v8C-2406.9,414.2-2411.2,418.4-2416.4,418.3"/>
									<path id="Path_28" class="st24" d="M-2055.5,596h-487.9c-5.2,0-9.5-4.1-9.5-9.4v-8c0-5.2,4.3-9.4,9.5-9.4h487.9
										c5.2,0,9.5,4.1,9.5,9.4v8C-2046,591.9-2050.3,596.1-2055.5,596"/>
								</g>
							</g>
						</g>
					</g>
					<rect id="Rectangle_8" x="-2609.7" y="206.5" class="st8" width="980" height="488.9"/>
				</g>
				<rect id="Rectangle_11" x="-2537.4" y="1897.3" class="st9" width="552.9" height="30.3"/>
				<rect id="Rectangle_12" x="-1916.3" y="1897.3" class="st9" width="564.3" height="30.3"/>
			</g>
			<rect id="Rectangle_17" x="-2475.3" y="1366" class="st8" width="89.4" height="466.6"/>
		</g>
		<rect id="Rectangle_21" x="-2446.5" y="3997" class="st5" width="996" height="18.9"/>
	</g>
</g>
<line class="st25" x1="-2716" y1="-2325" x2="-1139" y2="-2325"/>
<rect x="-3088" y="-2369" class="st26" width="54" height="117"/>
<rect x="-3134" y="-2156" class="st27" width="61" height="124"/>
<line class="st25" x1="-2738" y1="-2168" x2="-1161" y2="-2168"/>
<line class="st25" x1="-2608" y1="-2032" x2="-1031" y2="-2032"/>
<line class="st25" x1="-2781" y1="-1826" x2="-1204" y2="-1826"/>
<line class="st28" x1="-2516.6" y1="-1532.7" x2="-2517" y2="-2394"/>
<g id="Group_9" transform="translate(2369 -3135)">
	<path id="Path_46" class="st29" d="M-4532.4,2753.8l59.1-53.4l88.9-25.2l84.3,25.2l72,53.4l55.9,142.6h-417.9L-4532.4,2753.8z"/>
	<path id="Rectangle_28" class="st30" d="M-4592.6,2877.6h423.3c5.2,0,9.4,4.2,9.4,9.4l0,0c0,5.2-4.2,9.4-9.4,9.4h-423.3
		c-5.2,0-9.4-4.2-9.4-9.4l0,0C-4602,2881.8-4597.8,2877.6-4592.6,2877.6z"/>
	<ellipse id="Ellipse_1" class="st29" cx="-4381.2" cy="2686.4" rx="33.8" ry="37.3"/>
</g>
<g>
	<rect x="0" class="st9" width="120.4" height="639"/>
	<rect x="272" class="st9" width="159" height="639"/>
</g>
<rect x="-1726.6" y="545.5" class="st2" width="81" height="291"/>
</svg>
