<!-- Generator: Adobe Illustrator 24.2.0, SVG Export Plug-In  -->
<svg version="1.1" xmlns="http://www.w3.org/2000/svg" xmlns:xlink="http://www.w3.org/1999/xlink" x="0px" y="0px"
     width="1361.8px" height="1555.3px" viewBox="0 0 1361.8 1555.3"
     style="overflow:visible;enable-background:new 0 0 1361.8 1555.3;" xml:space="preserve">
<style type="text/css">
	.st0{fill:#5E2D02;}
	.st1{fill:#442204;}
	.st2{fill:#2F2F30;}
	.st3{clip-path:url(#SVGID_2_);}
	.st4{fill:none;stroke:#1A1818;stroke-miterlimit:10;}
	.st5{fill:#373739;}
	.st6{fill:#FFFFFF;}
	.st7{fill:#B8BABC;}
	.st8{fill:#D3D5D6;}
	.st9{fill:#CED0D2;}
	.st10{fill:#E0E1E3;}
	.st11{fill:#E93D4C;}
	.st12{fill:#FFEB4F;}
	.st13{fill:#96CB96;}
	.st14{fill:none;stroke:#6D6F72;stroke-width:15;stroke-miterlimit:10;}
	.st15{fill:#207CC1;}
	.st16{fill:#914F99;}
	.st17{fill:#7AC08A;}
	.st18{fill:#FFF288;}
	.st19{fill:#E36016;}
	.st20{fill:#FFF18B;}
	.st21{fill:#E25F16;}
	.st22{clip-path:url(#SVGID_4_);}
</style>
    <defs>
</defs>
    <g id="Group_13_1_" transform="translate(-67 -3486.984)">
	<g id="Group_12_1_">
		<rect id="Rectangle_18_1_" x="245.7" y="4503.8" class="st0" width="92.4" height="415.8"/>
        <rect id="Rectangle_19_1_" x="1169" y="4502.3" class="st0" width="92.4" height="415.8"/>
        <path id="Path_30_1_" class="st1" d="M241.9,4444h993.8l191.7,117.4L67,4560.1L241.9,4444z"/>
        <path id="Path_33_1_" class="st1" d="M338.1,4503.8h47.7v366.8l-47.7,49V4503.8z"/>
        <path id="Path_34_1_" class="st1" d="M1169,4502.3h-47.7v366.8l47.7,49V4502.3z"/>
        <rect id="Rectangle_13_1_" x="67.7" y="4559.8" class="st0" width="1361.1" height="66.7"/>
        <rect id="Rectangle_15_1_" x="67.7" y="4626.5" class="st0" width="92.4" height="415.8"/>
        <rect id="Rectangle_16_1_" x="1336.4" y="4626.5" class="st0" width="92.4" height="415.8"/>
        <path id="Path_31_1_" class="st1" d="M160.1,4626.5h47.7v366.8l-47.7,49V4626.5z"/>
        <path id="Path_32_1_" class="st1" d="M1336.3,4626.5h-47.7v366.8l47.7,49V4626.5z"/>
	</g>
        <g id="Group_8_1_" transform="translate(0 170)">
		<g id="Group_6_1_" transform="translate(0 2141)">
			<g id="Group_5_1_" transform="translate(0 34.88)">
				<g id="Group_4_1_" transform="translate(171 1141.104)">
					<g id="Group_3_1_">
						<rect id="Rectangle_3_1_" x="-24.4" y="318.3" class="st2" width="1194.5" height="306.6"/>
                        <g id="Group_2_1_" transform="translate(0 0)">
							<g>
								<defs>
									<rect id="SVGID_1_" x="-24.6" y="0.3" width="1194.8" height="1026.9"/>
								</defs>
                                <clipPath id="SVGID_2_">
									<use xlink:href="#SVGID_1_"  style="overflow:visible;"/>
								</clipPath>
                                <g id="Mask_Group_1_1_" class="st3">
									<path id="Path_1_1_" class="st4" d="M1170.1,306.3v305.8H-24.4V306.3"/>
                                    <path id="Path_2_1_" class="st2" d="M-24.4,328.7V24.8c0-13.4,12.2-24.3,27.2-24.3h1140.2c15,0,27.2,10.9,27.2,24.3v303.9"
                                    />
                                    <path id="Path_3_1_" class="st4" d="M-24.4,306.3V23.1c0-12.5,12.2-22.6,27.2-22.6h1140.2c15,0,27.2,10.1,27.2,22.6v283.2"
                                    />
                                    <rect id="Rectangle_4_1_" x="26.1" y="44" class="st5" width="1093.6" height="545.8"/>
                                    <path id="Path_4_1_" class="st6" d="M1170.1,682.7v31.4c0,21.6-17.8,39.1-39.7,39.1H15.3c-21.9,0-39.7-17.5-39.7-39.1
										v-31.4"/>
                                    <path id="Path_5_1_" class="st6" d="M-24.4,682.7v-70.5h1194.5v70.5"/>
                                    <path id="Path_6_1_" class="st6" d="M772.6,962.5H373.1l42.6-209.2H730L772.6,962.5z"/>
                                    <path id="Path_7_1_" class="st6" d="M832.5,1016.7H313.2l59.9-54.2h399.5L832.5,1016.7z"/>
                                    <path id="Path_8_1_" class="st7" d="M736,783l-326.4-0.2l6-29.5H730L736,783z"/>
                                    <path id="Path_9_1_" class="st8" d="M736,783l-326.4-0.2l6-29.5H730L736,783z"/>
                                    <path id="Path_10_1_" class="st9" d="M832.5,1016.7H313.2l59.9-54.2h399.5L832.5,1016.7z"/>
                                    <rect id="Rectangle_5_1_" x="313.2" y="1016.7" class="st6" width="519.4" height="10.5"/>
                                    <path id="Path_11_1_" class="st10" d="M540.3,689.7v-15.3c0-13.5,11.1-24.4,24.8-24.4h15.6c13.7,0,24.8,10.9,24.8,24.4
										v15.3c0,13.5-11.1,24.4-24.8,24.4h-15.6C551.4,714.1,540.3,703.1,540.3,689.7"/>
                                    <path id="Path_12_1_" class="st6" d="M577,705.5h-8.2c-10.8,0.1-19.7-8.6-19.8-19.5V678c0.1-10.8,9-19.5,19.8-19.5h8.2
										c10.8-0.1,19.7,8.6,19.8,19.5v8.1C596.6,696.9,587.8,705.6,577,705.5"/>
                                    <rect id="Rectangle_6_1_" x="28.4" y="47" class="st10" width="1088.8" height="36.1"/>
                                    <path id="Path_13_1_" class="st11" d="M62.2,65c0.1,5.3-4.2,9.8-9.5,9.8c-5.3,0.1-9.8-4.2-9.8-9.5
										c-0.1-5.3,4.2-9.8,9.5-9.8c0.1,0,0.1,0,0.2,0C57.9,55.4,62.2,59.7,62.2,65"/>
                                    <path id="Path_14_1_" class="st12" d="M98.1,65c0.1,5.3-4.2,9.8-9.5,9.8c-5.3,0.1-9.8-4.2-9.8-9.5
										c-0.1-5.3,4.2-9.8,9.5-9.8c0.1,0,0.1,0,0.2,0C93.7,55.4,98,59.7,98.1,65"/>
                                    <path id="Path_15_1_" class="st13" d="M133,65.8c0.1,5.3-4.2,9.8-9.5,9.8c-5.3,0.1-9.8-4.2-9.8-9.5
										c-0.1-5.3,4.2-9.8,9.5-9.8c0.1,0,0.1,0,0.2,0C128.6,56.2,132.9,60.5,133,65.8"/>
                                    <line id="Line_1_1_" class="st14" x1="88.4" y1="112.8" x2="88.4" y2="538"/>
                                    <path id="Path_16_1_" class="st15" d="M384,165H148.9c-5.2,0-9.5-4.1-9.5-9.4v-8c0-5.2,4.3-9.4,9.5-9.4H384
										c5.2,0,9.5,4.1,9.5,9.4v8C393.4,160.8,389.2,165,384,165"/>
                                    <path id="Path_17_1_" class="st16" d="M215.4,220.1h-66.6c-5.2,0-9.5-4.1-9.5-9.4v-8c0-5.2,4.3-9.4,9.5-9.4h66.6
										c5.2,0,9.5,4.1,9.5,9.4v8C224.9,216,220.7,220.2,215.4,220.1"/>
                                    <path id="Path_18_1_" class="st17" d="M471.1,165h-38.7c-5.2,0-9.5-4.1-9.5-9.4v-8c0-5.2,4.3-9.4,9.5-9.4h38.7
										c5.2,0,9.5,4.1,9.5,9.4v8C480.6,160.8,476.3,165,471.1,165"/>
                                    <path id="Path_19_1_" class="st16" d="M668.6,164.9H519.9c-5.2,0-9.5-4.1-9.5-9.4v-8c0-5.2,4.3-9.4,9.5-9.4h148.8
										c5.2,0,9.5,4.1,9.5,9.4v8C678.1,160.7,673.9,164.9,668.6,164.9"/>
                                    <path id="Path_20_1_" class="st18" d="M646.9,220.1H255.1c-5.2,0-9.5-4.1-9.5-9.4v-8c0-5.2,4.3-9.4,9.5-9.4h391.8
										c5.2,0,9.5,4.1,9.5,9.4v8C656.4,216,652.1,220.2,646.9,220.1"/>
                                    <path id="Path_21_1_" class="st16" d="M303.7,394.3H149.5c-5.2,0-9.5-4.1-9.5-9.4v-8c0-5.2,4.3-9.4,9.5-9.4h154.2
										c5.2,0,9.5,4.1,9.5,9.4v8C313.2,390.2,309,394.4,303.7,394.3"/>
                                    <path id="Path_22_1_" class="st18" d="M335.3,447.8H149.5c-5.2,0-9.5-4.1-9.5-9.4v-8c0-5.2,4.3-9.4,9.5-9.4h185.8
										c5.2,0,9.5,4.1,9.5,9.4v8C344.8,443.7,340.5,447.9,335.3,447.8"/>
                                    <path id="Path_23_1_" class="st17" d="M477.2,393.3H375.8c-5.2,0-9.5-4.1-9.5-9.4v-8c0-5.2,4.3-9.4,9.5-9.4h101.4
										c5.2,0,9.5,4.1,9.5,9.4v8C486.7,389.1,482.4,393.3,477.2,393.3"/>
                                    <path id="Path_24_1_" class="st15" d="M569.4,393.2H526c-5.2,0-9.5-4.1-9.5-9.4v-8c0-5.2,4.3-9.4,9.5-9.4h43.4
										c5.2,0,9.5,4.1,9.5,9.4v8C578.8,389.1,574.6,393.3,569.4,393.2"/>
                                    <path id="Path_25_1_" class="st15" d="M653,448.4H409.1c-5.2,0-9.5-4.1-9.5-9.4v-8c0-5.2,4.3-9.4,9.5-9.4H653
										c5.2,0,9.5,4.1,9.5,9.4v8C662.5,444.3,658.2,448.5,653,448.4"/>
                                    <path id="Path_26_1_" class="st19" d="M198.3,328.7h-43.4c-5.2,0-9.5-4.1-9.5-9.4v-8c0-5.2,4.3-9.4,9.5-9.4h43.4
										c5.2,0,9.5,4.1,9.5,9.4v8C207.8,324.5,203.6,328.7,198.3,328.7"/>
                                    <path id="Path_27_1_" class="st20" d="M276.5,328.7h-43.4c-5.2,0-9.5-4.1-9.5-9.4v-8c0-5.2,4.3-9.4,9.5-9.4h43.4
										c5.2,0,9.5,4.1,9.5,9.4v8C286,324.5,281.7,328.7,276.5,328.7"/>
                                    <path id="Path_28_1_" class="st21" d="M637.4,506.4H149.5c-5.2,0-9.5-4.1-9.5-9.4v-8c0-5.2,4.3-9.4,9.5-9.4h487.9
										c5.2,0,9.5,4.1,9.5,9.4v8C646.9,502.2,642.6,506.4,637.4,506.4"/>
								</g>
							</g>
						</g>
					</g>
                    <rect id="Rectangle_8_1_" x="83.2" y="116.9" class="st5" width="980" height="488.9"/>
				</g>
                <rect id="Rectangle_11_1_" x="155.5" y="1807.7" class="st6" width="552.9" height="30.3"/>
                <rect id="Rectangle_12_1_" x="776.6" y="1807.7" class="st6" width="564.3" height="30.3"/>
			</g>
            <rect id="Rectangle_17_1_" x="217.6" y="1276.3" class="st5" width="89.4" height="466.6"/>
		</g>
            <rect id="Rectangle_21_1_" x="246.4" y="3907.4" class="st2" width="996" height="18.9"/>
	</g>
</g>
</svg>
