<!-- Generator: Adobe Illustrator 24.2.0, SVG Export Plug-In  -->
<svg version="1.1" xmlns="http://www.w3.org/2000/svg" xmlns:xlink="http://www.w3.org/1999/xlink" x="0px" y="0px" width="1636px"
	 height="2247px" viewBox="0 0 1636 2247" style="overflow:visible;enable-background:new 0 0 1636 2247;" xml:space="preserve">
<style type="text/css">
	.st0{fill:#2C4349;}
	.st1{fill:#46646C;}
	.st2{fill:#1D2C30;}
	.st3{fill:#5E2D02;}
	.st4{fill:#442204;}
	.st5{fill:#2F2F30;}
	.st6{clip-path:url(#SVGID_2_);}
	.st7{fill:none;stroke:#1A1818;stroke-miterlimit:10;}
	.st8{fill:#373739;}
	.st9{fill:#FFFFFF;}
	.st10{fill:#B8BABC;}
	.st11{fill:#D3D5D6;}
	.st12{fill:#CED0D2;}
	.st13{fill:#E0E1E3;}
	.st14{fill:#E93D4C;}
	.st15{fill:#FFEB4F;}
	.st16{fill:#96CB96;}
	.st17{fill:none;stroke:#6D6F72;stroke-width:15;stroke-miterlimit:10;}
	.st18{fill:#207CC1;}
	.st19{fill:#914F99;}
	.st20{fill:#7AC08A;}
	.st21{fill:#FFF288;}
	.st22{fill:#E36016;}
	.st23{fill:#FFF18B;}
	.st24{fill:#E25F16;}
	.st25{fill:#ED6A40;}
	.st26{fill:#692F22;}
	.st27{clip-path:url(#SVGID_4_);}
</style>
	<defs>
</defs>
	<rect class="st0" width="1636" height="2247"/>
	<g>
	<rect x="1" y="912" class="st1" width="1634" height="1335"/>
		<polyline class="st1" points="0.9,912.4 818.5,94.8 1635.1,911.4 	"/>
</g>
	<polygon class="st2" points="1635,2247 1,2247 317,1950 1332,1950 "/>
	<g id="Group_13_1_" transform="translate(-67 -3486.984)">
	<g id="Group_12_1_">
		<rect id="Rectangle_18_1_" x="382.8" y="5079.5" class="st3" width="92.4" height="415.8"/>
		<rect id="Rectangle_19_1_" x="1306.1" y="5077.9" class="st3" width="92.4" height="415.8"/>
		<path id="Path_30_1_" class="st4" d="M379,5019.6h993.8l191.7,117.4l-1360.4-1.2L379,5019.6z"/>
		<path id="Path_33_1_" class="st4" d="M475.2,5079.5h47.7v366.8l-47.7,49V5079.5z"/>
		<path id="Path_34_1_" class="st4" d="M1306.1,5077.9h-47.7v366.8l47.7,49V5077.9z"/>
		<rect id="Rectangle_13_1_" x="204.8" y="5135.5" class="st3" width="1361.1" height="66.7"/>
		<rect id="Rectangle_15_1_" x="204.8" y="5202.2" class="st3" width="92.4" height="415.8"/>
		<rect id="Rectangle_16_1_" x="1473.5" y="5202.2" class="st3" width="92.4" height="415.8"/>
		<path id="Path_31_1_" class="st4" d="M297.2,5202.2h47.7v366.8l-47.7,49V5202.2z"/>
		<path id="Path_32_1_" class="st4" d="M1473.5,5202.2h-47.7v366.8l47.7,49V5202.2z"/>
	</g>
		<g id="Group_8_1_" transform="translate(0 170)">
		<g id="Group_6_1_" transform="translate(0 2141)">
			<g id="Group_5_1_" transform="translate(0 34.88)">
				<g id="Group_4_1_" transform="translate(171 1141.104)">
					<g id="Group_3_1_">
						<rect id="Rectangle_3_1_" x="112.7" y="893.9" class="st5" width="1194.5" height="306.6"/>
						<g id="Group_2_1_" transform="translate(0 0)">
							<g>
								<defs>
									<rect id="SVGID_1_" x="112.5" y="576" width="1194.8" height="1026.9"/>
								</defs>
								<clipPath id="SVGID_2_">
									<use xlink:href="#SVGID_1_"  style="overflow:visible;"/>
								</clipPath>
								<g id="Mask_Group_1_1_" class="st6">
									<path id="Path_1_1_" class="st7" d="M1307.2,882v305.8H112.7V882"/>
									<path id="Path_2_1_" class="st5" d="M112.7,904.3V600.4c0-13.4,12.2-24.3,27.2-24.3H1280c15,0,27.2,10.9,27.2,24.3v303.9"
									/>
									<path id="Path_3_1_" class="st7" d="M112.7,882V598.8c0-12.5,12.2-22.6,27.2-22.6H1280c15,0,27.2,10.1,27.2,22.6V882"/>
									<rect id="Rectangle_4_1_" x="163.2" y="619.7" class="st8" width="1093.6" height="545.8"/>
									<path id="Path_4_1_" class="st9" d="M1307.2,1258.4v31.4c0,21.6-17.8,39.1-39.7,39.1h-1115c-21.9,0-39.7-17.5-39.7-39.1
										v-31.4"/>
									<path id="Path_5_1_" class="st9" d="M112.7,1258.4v-70.5h1194.5v70.5"/>
									<path id="Path_6_1_" class="st9" d="M909.7,1538.2H510.2l42.6-209.2h314.3L909.7,1538.2z"/>
									<path id="Path_7_1_" class="st9" d="M969.6,1592.3H450.3l59.9-54.2h399.5L969.6,1592.3z"/>
									<path id="Path_8_1_" class="st10" d="M873.2,1358.6l-326.4-0.2l6-29.5h314.3L873.2,1358.6z"/>
									<path id="Path_9_1_" class="st11" d="M873.2,1358.6l-326.4-0.2l6-29.5h314.3L873.2,1358.6z"/>
									<path id="Path_10_1_" class="st12" d="M969.6,1592.3H450.3l59.9-54.2h399.5L969.6,1592.3z"/>
									<rect id="Rectangle_5_1_" x="450.3" y="1592.3" class="st9" width="519.4" height="10.5"/>
									<path id="Path_11_1_" class="st13" d="M677.4,1265.3V1250c0-13.5,11.1-24.4,24.8-24.4h15.6c13.7,0,24.8,10.9,24.8,24.4
										v15.3c0,13.5-11.1,24.4-24.8,24.4h-15.6C688.5,1289.7,677.4,1278.8,677.4,1265.3"/>
									<path id="Path_12_1_" class="st9" d="M714.1,1281.2h-8.2c-10.8,0.1-19.7-8.6-19.8-19.5v-8.1c0.1-10.8,9-19.5,19.8-19.5h8.2
										c10.8-0.1,19.7,8.6,19.8,19.5v8.1C733.7,1272.6,724.9,1281.3,714.1,1281.2"/>
									<rect id="Rectangle_6_1_" x="165.5" y="622.6" class="st13" width="1088.8" height="36.1"/>
									<path id="Path_13_1_" class="st14" d="M199.3,640.7c0.1,5.3-4.2,9.8-9.5,9.8c-5.3,0.1-9.8-4.2-9.8-9.5s4.2-9.8,9.5-9.8
										c0.1,0,0.1,0,0.2,0C195,631.1,199.3,635.4,199.3,640.7"/>
									<path id="Path_14_1_" class="st15" d="M235.2,640.7c0.1,5.3-4.2,9.8-9.5,9.8c-5.3,0.1-9.8-4.2-9.8-9.5
										c-0.1-5.3,4.2-9.8,9.5-9.8c0.1,0,0.1,0,0.2,0C230.8,631.1,235.1,635.4,235.2,640.7"/>
									<path id="Path_15_1_" class="st16" d="M270.1,641.4c0.1,5.3-4.2,9.8-9.5,9.8c-5.3,0.1-9.8-4.2-9.8-9.5
										c-0.1-5.3,4.2-9.8,9.5-9.8c0.1,0,0.1,0,0.2,0C265.7,631.9,270,636.1,270.1,641.4"/>
									<line id="Line_1_1_" class="st17" x1="225.5" y1="688.5" x2="225.5" y2="1113.7"/>
									<path id="Path_16_1_" class="st18" d="M521.1,740.6H286c-5.2,0-9.5-4.1-9.5-9.4v-8c0-5.2,4.3-9.4,9.5-9.4h235.1
										c5.2,0,9.5,4.1,9.5,9.4v8C530.5,736.5,526.3,740.7,521.1,740.6"/>
									<path id="Path_17_1_" class="st19" d="M352.6,795.8H286c-5.2,0-9.5-4.1-9.5-9.4v-8c0-5.2,4.3-9.4,9.5-9.4h66.6
										c5.2,0,9.5,4.1,9.5,9.4v8C362,791.6,357.8,795.8,352.6,795.8"/>
									<path id="Path_18_1_" class="st20" d="M608.2,740.6h-38.7c-5.2,0-9.5-4.1-9.5-9.4v-8c0-5.2,4.3-9.4,9.5-9.4h38.7
										c5.2,0,9.5,4.1,9.5,9.4v8C617.7,736.5,613.4,740.7,608.2,740.6"/>
									<path id="Path_19_1_" class="st19" d="M805.8,740.5H657c-5.2,0-9.5-4.1-9.5-9.4v-8c0-5.2,4.3-9.4,9.5-9.4h148.8
										c5.2,0,9.5,4.1,9.5,9.4v8C815.2,736.4,811,740.6,805.8,740.5"/>
									<path id="Path_20_1_" class="st21" d="M784,795.8H392.2c-5.2,0-9.5-4.1-9.5-9.4v-8c0-5.2,4.3-9.4,9.5-9.4H784
										c5.2,0,9.5,4.1,9.5,9.4v8C793.5,791.6,789.2,795.8,784,795.8"/>
									<path id="Path_21_1_" class="st19" d="M440.8,970H286.6c-5.2,0-9.5-4.1-9.5-9.4v-8c0-5.2,4.3-9.4,9.5-9.4h154.2
										c5.2,0,9.5,4.1,9.5,9.4v8C450.3,965.8,446.1,970,440.8,970"/>
									<path id="Path_22_1_" class="st21" d="M472.4,1023.5H286.6c-5.2,0-9.5-4.1-9.5-9.4v-8c0-5.2,4.3-9.4,9.5-9.4h185.8
										c5.2,0,9.5,4.1,9.5,9.4v8C481.9,1019.3,477.7,1023.5,472.4,1023.5"/>
									<path id="Path_23_1_" class="st20" d="M614.3,969H512.9c-5.2,0-9.5-4.1-9.5-9.4v-8c0-5.2,4.3-9.4,9.5-9.4h101.4
										c5.2,0,9.5,4.1,9.5,9.4v8C623.8,964.8,619.5,969,614.3,969"/>
									<path id="Path_24_1_" class="st18" d="M706.5,968.9h-43.4c-5.2,0-9.5-4.1-9.5-9.4v-8c0-5.2,4.3-9.4,9.5-9.4h43.4
										c5.2,0,9.5,4.1,9.5,9.4v8C715.9,964.7,711.7,968.9,706.5,968.9"/>
									<path id="Path_25_1_" class="st18" d="M790.1,1024.1H546.2c-5.2,0-9.5-4.1-9.5-9.4v-8c0-5.2,4.3-9.4,9.5-9.4h243.9
										c5.2,0,9.5,4.1,9.5,9.4v8C799.6,1020,795.3,1024.2,790.1,1024.1"/>
									<path id="Path_26_1_" class="st22" d="M335.5,904.3H292c-5.2,0-9.5-4.1-9.5-9.4v-8c0-5.2,4.3-9.4,9.5-9.4h43.4
										c5.2,0,9.5,4.1,9.5,9.4v8C344.9,900.2,340.7,904.4,335.5,904.3"/>
									<path id="Path_27_1_" class="st23" d="M413.6,904.3h-43.4c-5.2,0-9.5-4.1-9.5-9.4v-8c0-5.2,4.3-9.4,9.5-9.4h43.4
										c5.2,0,9.5,4.1,9.5,9.4v8C423.1,900.2,418.8,904.4,413.6,904.3"/>
									<path id="Path_28_1_" class="st24" d="M774.5,1082H286.6c-5.2,0-9.5-4.1-9.5-9.4v-8c0-5.2,4.3-9.4,9.5-9.4h487.9
										c5.2,0,9.5,4.1,9.5,9.4v8C784,1077.9,779.7,1082.1,774.5,1082"/>
								</g>
							</g>
						</g>
					</g>
					<rect id="Rectangle_8_1_" x="220.3" y="692.5" class="st8" width="980" height="488.9"/>
				</g>
				<rect id="Rectangle_11_1_" x="292.6" y="2383.3" class="st9" width="552.9" height="30.3"/>
				<rect id="Rectangle_12_1_" x="913.7" y="2383.3" class="st9" width="564.3" height="30.3"/>
			</g>
			<rect id="Rectangle_17_1_" x="354.7" y="1852" class="st8" width="89.4" height="466.6"/>
		</g>
			<rect id="Rectangle_21_1_" x="383.5" y="4483" class="st5" width="996" height="18.9"/>
	</g>
</g>
	<g id="Group_9_1_" transform="translate(2369 -3135)">
	<path id="Path_46_1_" class="st25" d="M-1702.4,3239.8l59.1-53.4l88.9-25.2l84.3,25.2l72,53.4l55.9,142.6h-417.9L-1702.4,3239.8z"
	/>
		<path id="Rectangle_28_1_" class="st26" d="M-1762.6,3363.6h423.3c5.2,0,9.4,4.2,9.4,9.4l0,0c0,5.2-4.2,9.4-9.4,9.4h-423.3
		c-5.2,0-9.4-4.2-9.4-9.4l0,0C-1772,3367.8-1767.8,3363.6-1762.6,3363.6z"/>
		<ellipse id="Ellipse_1_1_" class="st25" cx="-1551.2" cy="3172.4" rx="33.8" ry="37.3"/>
</g>
</svg>
