<?xml version="1.0" encoding="utf-8"?>
<!-- Generator: Adobe Illustrator 24.2.0, SVG Export Plug-In . SVG Version: 6.00 Build 0)  -->
<svg version="1.1" id="Layer_1" xmlns="http://www.w3.org/2000/svg" xmlns:xlink="http://www.w3.org/1999/xlink" x="0px" y="0px"
	 viewBox="0 0 1920 1080" style="enable-background:new 0 0 1920 1080;" xml:space="preserve">
<style type="text/css">
	.st0{fill:#5E2D02;}
	.st1{fill:#442204;}
	.st2{fill:#2F2F30;}
	.st3{clip-path:url(#SVGID_2_);}
	.st4{fill:none;stroke:#1A1818;stroke-miterlimit:10;}
	.st5{fill:#373739;}
	.st6{fill:#FFFFFF;}
	.st7{fill:#B8BABC;}
	.st8{fill:#D3D5D6;}
	.st9{fill:#CED0D2;}
	.st10{fill:#E0E1E3;}
	.st11{fill:#E93D4C;}
	.st12{fill:#FFEB4F;}
	.st13{fill:#96CB96;}
	.st14{fill:none;stroke:#6D6F72;stroke-width:15;stroke-miterlimit:10;}
	.st15{fill:#207CC1;}
	.st16{fill:#914F99;}
	.st17{fill:#7AC08A;}
	.st18{fill:#FFF288;}
	.st19{fill:#E36016;}
	.st20{fill:#FFF18B;}
	.st21{fill:#E25F16;}
	.st22{fill:#FDCE93;}
	.st23{fill:#FF0C0C;}
	.st24{fill:#A20B0B;}
</style>
<g>
	<polygon class="st22" points="1920,864 996,892 0,864 960,119 	"/>
	<g id="Group_9" transform="translate(2369 -3135)">
		<path id="Path_46" class="st23" d="M-1573.1,3258.4l64-57.9l96.3-27.3l91.4,27.3l78,57.9l60.6,154.6h-453L-1573.1,3258.4z"/>
		<path id="Rectangle_28" class="st24" d="M-1638.4,3392.6h458.8c5.6,0,10.2,4.6,10.2,10.2l0,0c0,5.6-4.6,10.2-10.2,10.2h-458.8
			c-5.6,0-10.2-4.6-10.2-10.2l0,0C-1648.6,3397.2-1644,3392.6-1638.4,3392.6z"/>
		<ellipse id="Ellipse_1" class="st23" cx="-1409.2" cy="3185.4" rx="36.6" ry="40.4"/>
	</g>
	<rect y="864" class="st22" width="1920" height="216"/>
</g>
</svg>
