<?xml version="1.0" encoding="utf-8"?>
<!-- Generator: Adobe Illustrator 24.2.0, SVG Export Plug-In . SVG Version: 6.00 Build 0)  -->
<svg version="1.1" id="Layer_1" xmlns="http://www.w3.org/2000/svg" xmlns:xlink="http://www.w3.org/1999/xlink" x="0px" y="0px"
	 viewBox="0 0 1920 1080" style="enable-background:new 0 0 1920 1080;" xml:space="preserve">
<style type="text/css">
	.st0{fill:url(#SVGID_1_);}
	.st1{fill:#FFFFFF;}
</style>
<g>
	<linearGradient id="SVGID_1_" gradientUnits="userSpaceOnUse" x1="960" y1="-9.094947e-13" x2="960" y2="1074.0417">
		<stop  offset="0" style="stop-color:#313131"/>
		<stop  offset="0.7376" style="stop-color:#000000"/>
	</linearGradient>
	<rect class="st0" width="1920" height="1080"/>
</g>
<g>
	<path class="st1" d="M243.7,123v95.7H148V123H243.7 M244.7,122H147v97.7h97.7V122L244.7,122z"/>
</g>
<g>
	<path class="st1" d="M341.4,123v95.7h-95.7V123H341.4 M342.4,122h-97.7v97.7h97.7V122L342.4,122z"/>
</g>
<g>
	<path class="st1" d="M341.4,221.2v95.7h-95.7v-95.7H341.4 M342.4,220.2h-97.7v97.7h97.7V220.2L342.4,220.2z"/>
</g>
<g>
	<path class="st1" d="M439.1,221.2v95.7h-95.7v-95.7H439.1 M440.1,220.2h-97.7v97.7h97.7V220.2L440.1,220.2z"/>
</g>
<g>
	<path class="st1" d="M536.8,123v95.7h-95.7V123H536.8 M537.8,122h-97.7v97.7h97.7V122L537.8,122z"/>
</g>
<g>
	<path class="st1" d="M634.5,123v95.7h-95.7V123H634.5 M635.5,122h-97.7v97.7h97.7V122L635.5,122z"/>
</g>
<g>
	<path class="st1" d="M536.8,220.7v95.7h-95.7v-95.7H536.8 M537.8,219.7h-97.7v97.7h97.7V219.7L537.8,219.7z"/>
</g>
<g>
	<path class="st1" d="M634.5,220.7v95.7h-95.7v-95.7H634.5 M635.5,219.7h-97.7v97.7h97.7V219.7L635.5,219.7z"/>
</g>
<g>
	<path class="st1" d="M243.7,317.9v95.7H148v-95.7H243.7 M244.7,316.9H147v97.7h97.7V316.9L244.7,316.9z"/>
</g>
<g>
	<path class="st1" d="M439.1,318.9v95.7h-95.7v-95.7H439.1 M440.1,317.9h-97.7v97.7h97.7V317.9L440.1,317.9z"/>
</g>
<g>
	<path class="st1" d="M732.7,514.3V610H637v-95.7H732.7 M733.7,513.3H636V611h97.7V513.3L733.7,513.3z"/>
</g>
<g>
	<path class="st1" d="M732.7,416.6l0,95.7H637v-95.7H732.7 M733.7,415.6H636v97.7h97.7L733.7,415.6L733.7,415.6z"/>
</g>
<g>
	<path class="st1" d="M830.9,416.6v95.7h-95.7v-95.7L830.9,416.6 M831.9,415.6l-97.7,0v97.7h97.7V415.6L831.9,415.6z"/>
</g>
<g>
	<path class="st1" d="M830.9,318.9v95.7l-95.7,0v-95.7H830.9 M831.9,317.9h-97.7v97.7l97.7,0V317.9L831.9,317.9z"/>
</g>
<g>
	<path class="st1" d="M732.7,221.2v95.7l-95.7,0v-95.7L732.7,221.2 M733.7,220.2l-97.7,0v97.7l97.7,0V220.2L733.7,220.2z"/>
</g>
<g>
	<path class="st1" d="M732.7,123.5v95.7l-95.7,0v-95.7L732.7,123.5 M733.7,122.5l-97.7,0v97.7l97.7,0V122.5L733.7,122.5z"/>
</g>
<g>
	<path class="st1" d="M830.4,221.2v95.7h-95.7v-95.7L830.4,221.2 M831.4,220.2l-97.7,0v97.7h97.7V220.2L831.4,220.2z"/>
</g>
<g>
	<path class="st1" d="M830.4,123.5l0,95.7l-95.7,0v-95.7L830.4,123.5 M831.4,122.5l-97.7,0v97.7l97.7,0L831.4,122.5L831.4,122.5z"/>
</g>
<g>
	<path class="st1" d="M927.6,514.3V610l-95.7,0v-95.7H927.6 M928.6,513.3h-97.7V611l97.7,0V513.3L928.6,513.3z"/>
</g>
<g>
	<path class="st1" d="M928.6,318.9v95.7h-95.7v-95.7H928.6 M929.6,317.9h-97.7v97.7h97.7V317.9L929.6,317.9z"/>
</g>
<g>
	<path class="st1" d="M341.4,416.6v95.7h-95.7v-95.7H341.4 M342.4,415.6h-97.7v97.7h97.7V415.6L342.4,415.6z"/>
</g>
<g>
	<path class="st1" d="M439.1,416.6v95.7h-95.7v-95.7H439.1 M440.1,415.6h-97.7v97.7h97.7V415.6L440.1,415.6z"/>
</g>
<g>
	<path class="st1" d="M536.8,416.1v95.7h-95.7v-95.7H536.8 M537.8,415.1h-97.7v97.7h97.7V415.1L537.8,415.1z"/>
</g>
<g>
	<path class="st1" d="M634.5,416.1v95.7h-95.7v-95.7H634.5 M635.5,415.1h-97.7v97.7h97.7V415.1L635.5,415.1z"/>
</g>
<g>
	<path class="st1" d="M243.7,513.3V609H148v-95.7H243.7 M244.7,512.3H147V610h97.7V512.3L244.7,512.3z"/>
</g>
<g>
	<path class="st1" d="M439.1,514.3V610h-95.7v-95.7H439.1 M440.1,513.3h-97.7V611h97.7V513.3L440.1,513.3z"/>
</g>
<g>
	<path class="st1" d="M1027,321.1v95.7h-95.7v-95.7H1027 M1028,320.1h-97.7v97.7h97.7V320.1L1028,320.1z"/>
</g>
<g>
	<path class="st1" d="M1124.7,321.1v95.7H1029v-95.7H1124.7 M1125.7,320.1H1028v97.7h97.7V320.1L1125.7,320.1z"/>
</g>
<g>
	<path class="st1" d="M1124.7,419.3V515H1029v-95.7H1124.7 M1125.7,418.3H1028V516h97.7V418.3L1125.7,418.3z"/>
</g>
<g>
	<path class="st1" d="M1222.4,419.3V515h-95.7v-95.7H1222.4 M1223.4,418.3h-97.7V516h97.7V418.3L1223.4,418.3z"/>
</g>
<g>
	<path class="st1" d="M1320.1,321.1v95.7h-95.7v-95.7H1320.1 M1321.1,320.1h-97.7v97.7h97.7V320.1L1321.1,320.1z"/>
</g>
<g>
	<path class="st1" d="M1417.8,321.1v95.7h-95.7v-95.7H1417.8 M1418.8,320.1h-97.7v97.7h97.7V320.1L1418.8,320.1z"/>
</g>
<g>
	<path class="st1" d="M1320.1,418.8v95.7h-95.7v-95.7H1320.1 M1321.1,417.8h-97.7v97.7h97.7V417.8L1321.1,417.8z"/>
</g>
<g>
	<path class="st1" d="M1417.8,418.8v95.7h-95.7v-95.7H1417.8 M1418.8,417.8h-97.7v97.7h97.7V417.8L1418.8,417.8z"/>
</g>
<g>
	<path class="st1" d="M1027,516v95.7h-95.7V516H1027 M1028,515h-97.7v97.7h97.7V515L1028,515z"/>
</g>
<g>
	<path class="st1" d="M1222.4,517v95.7h-95.7V517H1222.4 M1223.4,516h-97.7v97.7h97.7V516L1223.4,516z"/>
</g>
<g>
	<path class="st1" d="M1516,712.4v95.7h-95.7v-95.7H1516 M1517,711.4h-97.7v97.7h97.7V711.4L1517,711.4z"/>
</g>
<g>
	<path class="st1" d="M1516,614.7v95.7h-95.7v-95.7H1516 M1517,613.7h-97.7v97.7h97.7V613.7L1517,613.7z"/>
</g>
<g>
	<path class="st1" d="M1614.2,614.7v95.7l-95.7,0v-95.7H1614.2 M1615.2,613.7h-97.7v97.7l97.7,0V613.7L1615.2,613.7z"/>
</g>
<g>
	<path class="st1" d="M1614.2,517v95.7h-95.7V517H1614.2 M1615.2,516h-97.7v97.7h97.7V516L1615.2,516z"/>
</g>
<g>
	<path class="st1" d="M1516,419.3V515h-95.7v-95.7H1516 M1517,418.3h-97.7V516h97.7V418.3L1517,418.3z"/>
</g>
<g>
	<path class="st1" d="M1516,321.6v95.7h-95.7v-95.7L1516,321.6 M1517,320.6l-97.7,0v97.7h97.7V320.6L1517,320.6z"/>
</g>
<g>
	<path class="st1" d="M1613.7,419.3V515H1518v-95.7L1613.7,419.3 M1614.7,418.3l-97.7,0V516h97.7V418.3L1614.7,418.3z"/>
</g>
<g>
	<path class="st1" d="M1613.7,321.6l0,95.7l-95.7,0v-95.7H1613.7 M1614.7,320.6H1517v97.7l97.7,0L1614.7,320.6L1614.7,320.6z"/>
</g>
<g>
	<path class="st1" d="M1710.9,712.4v95.7h-95.7v-95.7H1710.9 M1711.9,711.4h-97.7v97.7h97.7V711.4L1711.9,711.4z"/>
</g>
<g>
	<path class="st1" d="M1711.9,517v95.7l-95.7,0V517H1711.9 M1712.9,516h-97.7v97.7l97.7,0V516L1712.9,516z"/>
</g>
<g>
	<path class="st1" d="M1124.7,614.7v95.7H1029v-95.7H1124.7 M1125.7,613.7H1028v97.7h97.7V613.7L1125.7,613.7z"/>
</g>
<g>
	<path class="st1" d="M1222.4,614.7v95.7h-95.7v-95.7H1222.4 M1223.4,613.7h-97.7v97.7h97.7V613.7L1223.4,613.7z"/>
</g>
<g>
	<path class="st1" d="M1320.1,614.2v95.7h-95.7v-95.7H1320.1 M1321.1,613.2h-97.7v97.7h97.7V613.2L1321.1,613.2z"/>
</g>
<g>
	<path class="st1" d="M1417.8,614.2v95.7h-95.7v-95.7H1417.8 M1418.8,613.2h-97.7v97.7h97.7V613.2L1418.8,613.2z"/>
</g>
<g>
	<path class="st1" d="M1027,711.4v95.7h-95.7v-95.7H1027 M1028,710.4h-97.7v97.7h97.7V710.4L1028,710.4z"/>
</g>
<g>
	<path class="st1" d="M1222.4,712.4v95.7h-95.7v-95.7H1222.4 M1223.4,711.4h-97.7v97.7h97.7V711.4L1223.4,711.4z"/>
</g>
<g>
	<path class="st1" d="M244,614.1v95.7h-95.7v-95.7H244 M245,613.1h-97.7v97.7H245V613.1L245,613.1z"/>
</g>
<g>
	<path class="st1" d="M341.7,614.1v95.7H246v-95.7H341.7 M342.7,613.1H245v97.7h97.7V613.1L342.7,613.1z"/>
</g>
<g>
	<path class="st1" d="M341.7,712.3V808H246v-95.7H341.7 M342.7,711.3H245V809h97.7V711.3L342.7,711.3z"/>
</g>
<g>
	<path class="st1" d="M439.4,712.3V808h-95.7v-95.7H439.4 M440.4,711.3h-97.7V809h97.7V711.3L440.4,711.3z"/>
</g>
<g>
	<path class="st1" d="M537.1,614.1v95.7h-95.7v-95.7H537.1 M538.1,613.1h-97.7v97.7h97.7V613.1L538.1,613.1z"/>
</g>
<g>
	<path class="st1" d="M634.8,614.1v95.7h-95.7v-95.7H634.8 M635.8,613.1h-97.7v97.7h97.7V613.1L635.8,613.1z"/>
</g>
<g>
	<path class="st1" d="M537.1,711.8v95.7h-95.7v-95.7H537.1 M538.1,710.8h-97.7v97.7h97.7V710.8L538.1,710.8z"/>
</g>
<g>
	<path class="st1" d="M634.8,711.8v95.7h-95.7v-95.7H634.8 M635.8,710.8h-97.7v97.7h97.7V710.8L635.8,710.8z"/>
</g>
<g>
	<path class="st1" d="M244,809v95.7h-95.7V809H244 M245,808h-97.7v97.7H245V808L245,808z"/>
</g>
<g>
	<path class="st1" d="M439.4,810v95.7h-95.7V810H439.4 M440.4,809h-97.7v97.7h97.7V809L440.4,809z"/>
</g>
<g>
	<path class="st1" d="M733,907.7v95.7h-95.7v-95.7H733 M734,906.7h-97.7v97.7H734V906.7L734,906.7z"/>
</g>
<g>
	<path class="st1" d="M831.2,907.7l0,95.7l-95.7,0v-95.7H831.2 M832.2,906.7h-97.7v97.7l97.7,0L832.2,906.7L832.2,906.7z"/>
</g>
<g>
	<path class="st1" d="M831.2,810v95.7h-95.7V810H831.2 M832.2,809h-97.7v97.7h97.7V809L832.2,809z"/>
</g>
<g>
	<path class="st1" d="M733,712.3l0,95.7h-95.7v-95.7L733,712.3 M734,711.3l-97.7,0V809H734L734,711.3L734,711.3z"/>
</g>
<g>
	<path class="st1" d="M733,614.6v95.7l-95.7,0l0-95.7H733 M734,613.6h-97.7l0,97.7l97.7,0V613.6L734,613.6z"/>
</g>
<g>
	<path class="st1" d="M830.7,712.3V808H735l0-95.7H830.7 M831.7,711.3H734l0,97.7h97.7V711.3L831.7,711.3z"/>
</g>
<g>
	<path class="st1" d="M830.7,614.6v95.7H735v-95.7H830.7 M831.7,613.6H734v97.7h97.7V613.6L831.7,613.6z"/>
</g>
<g>
	<path class="st1" d="M928.9,810v95.7l-95.7,0V810H928.9 M929.9,809h-97.7v97.7l97.7,0V809L929.9,809z"/>
</g>
<g>
	<path class="st1" d="M341.7,907.7v95.7H246v-95.7H341.7 M342.7,906.7H245v97.7h97.7V906.7L342.7,906.7z"/>
</g>
<g>
	<path class="st1" d="M439.4,907.7v95.7h-95.7v-95.7H439.4 M440.4,906.7h-97.7v97.7h97.7V906.7L440.4,906.7z"/>
</g>
<g>
	<path class="st1" d="M537.1,907.2v95.7h-95.7v-95.7H537.1 M538.1,906.2h-97.7v97.7h97.7V906.2L538.1,906.2z"/>
</g>
<g>
	<path class="st1" d="M634.8,907.2v95.7h-95.7v-95.7H634.8 M635.8,906.2h-97.7v97.7h97.7V906.2L635.8,906.2z"/>
</g>
<g>
	<path class="st1" d="M1516.5,223.2v95.7h-95.7l0-95.7L1516.5,223.2 M1517.5,222.2l-97.7,0l0,97.7h97.7V222.2L1517.5,222.2z"/>
</g>
<g>
	<path class="st1" d="M1711.4,223.2v95.7h-95.7v-95.7L1711.4,223.2 M1712.4,222.2l-97.7,0v97.7h97.7V222.2L1712.4,222.2z"/>
</g>
<g>
	<path class="st1" d="M1027.5,222.3V318h-95.7v-95.7H1027.5 M1028.5,221.3h-97.7V319h97.7V221.3L1028.5,221.3z"/>
</g>
<g>
	<path class="st1" d="M1222.9,223.2v95.7h-95.7v-95.7H1222.9 M1223.9,222.2h-97.7v97.7h97.7V222.2L1223.9,222.2z"/>
</g>
<g>
	<path class="st1" d="M1919,1v1078H1V1H1919 M1920,0H0v1080h1920V0L1920,0z"/>
</g>
</svg>
